<svg width="19" height="16" viewBox="0 0 19 16" fill="none" xmlns="http://www.w3.org/2000/svg">
<path fill-rule="evenodd" clip-rule="evenodd" d="M18.3359 9.625V14.625C18.3359 15.3154 17.7763 15.875 17.0859 15.875H2.08594C1.39558 15.875 0.835938 15.3154 0.835938 14.625V9.625C0.835938 8.93464 1.39558 8.375 2.08594 8.375H5.83594C6.18112 8.375 6.46094 8.65482 6.46094 9C6.46094 9.34518 6.18112 9.625 5.83594 9.625H2.08594V14.625H17.0859V9.625H13.3359C12.9908 9.625 12.7109 9.34518 12.7109 9C12.7109 8.65482 12.9908 8.375 13.3359 8.375H17.0859C17.7763 8.375 18.3359 8.93464 18.3359 9.625ZM6.27812 5.06719L8.96094 2.38359V9C8.96094 9.34518 9.24076 9.625 9.58594 9.625C9.93112 9.625 10.2109 9.34518 10.2109 9V2.38359L12.8938 5.06719C13.138 5.3114 13.5339 5.3114 13.7781 5.06719C14.0223 4.82297 14.0223 4.42703 13.7781 4.18281L10.0281 0.432812C9.91089 0.315452 9.75182 0.249508 9.58594 0.249508C9.42006 0.249508 9.26098 0.315452 9.14375 0.432812L5.39375 4.18281C5.14954 4.42703 5.14954 4.82297 5.39375 5.06719C5.63796 5.3114 6.03391 5.3114 6.27812 5.06719ZM15.2109 12.125C15.2109 11.6072 14.7912 11.1875 14.2734 11.1875C13.7557 11.1875 13.3359 11.6072 13.3359 12.125C13.3359 12.6428 13.7557 13.0625 14.2734 13.0625C14.7912 13.0625 15.2109 12.6428 15.2109 12.125Z" fill="white"/>
</svg>
